<?xml version="1.0" encoding="utf-8"?>
<!-- Generator: Adobe Illustrator 24.1.2, SVG Export Plug-In . SVG Version: 6.00 Build 0)  -->
<svg version="1.1" id="Слой_1" xmlns="http://www.w3.org/2000/svg" xmlns:xlink="http://www.w3.org/1999/xlink" x="0px" y="0px"
	 viewBox="0 0 595.28 841.89" style="enable-background:new 0 0 595.28 841.89;" xml:space="preserve">
<path d="M485,463c-119,0-238,0-357,0c-3.34-1.27-48.47-19.3-58-66c-1.16-5.66-7.74-40.92,16-69c21.39-25.3,62.92-39.49,96-20
	c24.43,14.39,38.07,43.52,35,74c-1.16-4.86-12.73-56.91,23-96c21.56-23.59,61.74-43.99,98-29c32.89,13.59,42.98,59.61,47,76
	c1.59,6.49,2.48,12.03,3,16c2.78-28.66,27.58-48.01,51-45c22.3,2.87,37.21,25.23,38,46c0.87,22.78-15.48,37.76-18,40
	c10.06-13.81,26.22-21.21,42-19c22.57,3.16,36.26,25.01,37,42C539.04,437.09,516.6,461.59,485,463z"/>
</svg>
