<?xml version="1.0" encoding="utf-8"?>
<!-- Generator: Adobe Illustrator 24.1.2, SVG Export Plug-In . SVG Version: 6.00 Build 0)  -->
<svg version="1.1" id="Слой_1" xmlns="http://www.w3.org/2000/svg" xmlns:xlink="http://www.w3.org/1999/xlink" x="0px" y="0px"
	 viewBox="0 0 595.28 841.89" style="enable-background:new 0 0 595.28 841.89;" xml:space="preserve">
<style type="text/css">
	.st0{stroke:#000000;stroke-miterlimit:10;}
</style>
<path class="st0" d="M485,463c-119,0-238,0-357,0c-15.33-14.24-21.97-34.98-17-54c0.38-1.46,9.57-34.45,38-37
	c17.26-1.55,34.53,8.77,43,26c-2.8-5.9-13.71-30.56-4-58c10.39-29.35,41.52-53.84,75-49c35.94,5.2,64.28,42.71,58,85
	c0.53-9.16,3.17-32.61,21-52c21.22-23.08,62.95-39.31,92-19c24.18,16.91,28.57,51.46,22,75c-2.6,9.32-6.78,16.39-10,21
	c0.87-1.42,11.6-18.17,32-19c15.18-0.62,29.14,7.84,35,19C522.49,419.07,512.83,448.28,485,463z"/>
</svg>
