<svg xmlns="http://www.w3.org/2000/svg" viewBox="0 0 583.53 297.73"><defs><style>.cls-1{fill:#e36c12;}.cls-2{fill:#e08f08;}.cls-3{fill:#e7de56;}.cls-4{fill:#f4ea5a;}.cls-5{fill:#587096;}.cls-6{fill:#0f0f0e;}.cls-7{fill:#fff;}.cls-8{fill:#4e6384;}</style></defs><g id="Слой_2" data-name="Слой 2"><g id="Слой_2-2" data-name="Слой 2"><path class="cls-1" d="M50.9,253.67a12.34,12.34,0,0,1,4.33,7.75,12.8,12.8,0,0,1-3.2,10,25,25,0,0,0,16.55-1.51c5.33-2.58,10.85-7.91,9.75-10.64-.84-2.08-5-1.39-14.08-2.71A99.17,99.17,0,0,1,50.9,253.67Z"/><path class="cls-1" d="M54.46,274.83C56.59,275,65,276,70.57,282.89a20.79,20.79,0,0,1,3.54,6.6c3.79-1.75,12.37-6.38,16.48-16,2.47-5.75,3.58-13.85.91-15.33-1.7-.95-5.85,2.06-14.08,8.11-6.12,4.51-7.62,6.1-11.18,7.4A24.64,24.64,0,0,1,54.46,274.83Z"/><path class="cls-2" d="M79.29,220.46a36.23,36.23,0,0,1,4.45,13.72c.6,5.47,1.39,12.64-2.71,16.78-6.91,7-24.82,2.42-29.83-1.51-.43-.35-2-1.63-2.64-1.2-.85.56,0,3.78.95,5.42,4.3,7.69,22.36,3.63,23,6.76.44,2.19-7.76,7-15.32,9.37-3.08,1-6,1.38-6.06,2.54s3,2.87,6.06,3.28c7.34,1,15-5,15.9-5.72,2-1.63,4.12-3.77,7.27-3.79a4.54,4.54,0,0,1,3.11.82c2.68,2.36.44,10-2.8,15.24-3.52,5.73-7.61,7.7-6.94,9s5.61.84,9.47-1.58c3.2-2,3.83-4.24,8.25-12.23,5-9,5.73-8.94,7.44-13.53s3.55-9.7,1.36-13.93c-.81-1.55-1.34-1.45-3.12-3.79a28.85,28.85,0,0,1-4.87-10.15c-2-8.24,1.92-15.85,3.11-18Z"/><path class="cls-1" d="M103,289.39a36.9,36.9,0,0,1,35.72,5.41,32.51,32.51,0,0,1,23.82-20.21l-34.82-15.33Z"/><path class="cls-2" d="M111.52,220.83a45.43,45.43,0,0,1,7,18.4c2.27,16.19-5.35,30.07-8.84,36.45-5.26,9.58-11.28,15.8-10.11,16.95s7.09-3.46,7.76-4c10.29-7.72,12.07-15.85,17-15.52,3.2.22,5.67,3.91,6.31,4.87,1,1.44,1.44,3.26,2.35,6.86,1.49,5.88,1.29,7.32,2.89,9.56.25.35,2.77,3.83,4.68,3.22,1.5-.48,1.93-3.26,2-4.8,0-2.8-1.22-3.83-3.42-9.21-1.18-2.89-1.77-4.38-2-6.35s-.55-5.75,1.26-7.22c3-2.4,8.82,3.37,21.29,5.42,1.42.23,7.87,1.29,8.3,0s-7-4.28-15.16-9.93c-1.42-1-10.65-7.45-17-15.87-3.21-4.29-10-15-10.47-33Z"/><path class="cls-3" d="M186.75,145.6c-5.07-2.45-10.43,6.32-19.12,5.41-6-.63-7.8-5.34-17-14.43A131.94,131.94,0,0,0,123.25,116a129.64,129.64,0,0,0-25.41-11.49A56.33,56.33,0,0,0,24.7,140.19c-2.3-2.65-6.71-7.25-8.95-6.13-1.7.84-2.44,5.12-.36,7.93a6.68,6.68,0,0,0,4.69,2.53,9.44,9.44,0,0,0-5.42,4.33c-1.33,2.44-1.74,6-.72,6.49s3.3-1.28,9.29-9.56A56.34,56.34,0,0,0,46,203.4c9.44,6.84,38.07,25.61,75.81,21.94,10.8-1.05,40.72-4,57.74-27.06,11.48-15.6,11.53-32.87,11.54-37.88C191.09,155.77,191,147.67,186.75,145.6Z"/><path class="cls-4" d="M65.16,144.52c-2.67.63-14.37,3.4-18,11.91-4.85,11.24,6.43,27.63,17.31,36.08,28,21.74,69.75,3.61,84.07-5.78,2.72-1.77,12.47-8.15,11.19-13.17-.93-3.65-7.54-5.82-9-6.31a21.87,21.87,0,0,0-7.22-1.08c5.37-.6,9.42-3.54,9.93-6.86.71-4.66-5.8-8.61-10.22-9.74-9.18-2.35-17.06,5.43-17.75,6.13,5.15-5.36,7.21-11.26,5.23-14.07-2.26-3.22-9.44-1.76-12.8-1.08-6.78,1.38-9.89,4-13.72,5.77C90.54,152.48,82.16,140.5,65.16,144.52Z"/><path class="cls-5" d="M31.6,117.6c-.81.34-5.74,2.51-7.4,7.8s1.16,9.75,1.89,10.93c1.3,2.08,5.18,7.12,18.68,9.09,16.08,2.35,39.32-.6,57.37-16.78,4.36-3.91,16.87-15.12,14.07-24.89-1-3.57-5.13-6.3-5.41-6.5A17.92,17.92,0,0,0,99.2,94,67.16,67.16,0,0,1,31.6,117.6Z"/><path class="cls-4" d="M55.05,28.52c-1.39,0-2.76.07-4.12.19-1.14-6.29-4.62-10.63-8.5-11.06-2.49-.28-6.38.91-6.86,3.61a4.93,4.93,0,0,0,2,4.34c-3.5-1.69-7.08-1.71-9.53,0-1.94,1.34-3.65,4.11-2.88,5.77.63,1.38,3.13,2.3,9.93,1.57a47.62,47.62,0,1,0,20-4.41Z"/><ellipse class="cls-6" cx="27.04" cy="64.96" rx="5.95" ry="8.12"/><path class="cls-2" d="M35.93,76.69c-1.85-.62-3.38,2-8.3,5a29.9,29.9,0,0,1-9,4C9.89,87.48,4.27,80.86,1.29,83.18-1.18,85.11.37,91.55,2,95.45c4.71,11.18,18.51,21.32,32.48,19.12,11.1-1.75,20.7-11,19.48-15.15-.51-1.71-2.58-1.31-6.85-4.69a27.16,27.16,0,0,1-7.58-9C37,80.56,37.89,77.34,35.93,76.69Z"/><path class="cls-5" d="M99.43,116.74a84.64,84.64,0,0,1,6,23.81c.73,7.44,3.71,37.71-14.64,51.33a32.73,32.73,0,0,1-12.15,5.5l-23-20.3a27.71,27.71,0,0,0,7.58-3.24c7.17-4.44,10.27-11,12.18-15.16a47.86,47.86,0,0,0,3.52-26.79Z"/><ellipse class="cls-7" cx="24.23" cy="62.7" rx="1.66" ry="2.26"/><ellipse class="cls-6" cx="54.08" cy="64.96" rx="5.95" ry="8.12"/><ellipse class="cls-7" cx="51.2" cy="62.7" rx="1.66" ry="2.27"/><path class="cls-5" d="M326.79,28.48A41.61,41.61,0,0,0,287.87,0a44.22,44.22,0,0,0-21.94,5c-15.62,8.44-20.27,24.39-21.16,27.69l46.76,17Z"/><path class="cls-1" d="M227,282a35.69,35.69,0,0,1,32.79,11.89,31.34,31.34,0,0,1,26.36-14.62l-30.05-21.1Z"/><path class="cls-2" d="M247.51,219.5a43.85,43.85,0,0,1,3.18,18.75c-.92,15.75-10.75,27.45-15.27,32.82-6.79,8.08-13.67,12.83-12.77,14.14s7.36-1.94,8.09-2.29c11.2-5.36,14.43-12.71,19-11.47,3,.81,4.63,4.78,5.05,5.81.64,1.54.75,3.36.93,6.93.29,5.85-.17,7.17.92,9.6.17.38,1.9,4.14,3.82,3.93,1.51-.16,2.45-2.72,2.76-4.17.58-2.65-.42-3.85-1.48-9.36-.58-3-.86-4.49-.66-6.39s.57-5.54,2.56-6.59c3.25-1.71,7.71,4.86,19.13,9.15,1.3.49,7.2,2.72,7.85,1.58s-5.8-5.37-12.46-12.27c-1.17-1.2-8.68-9.07-13-18.23-2.22-4.67-6.68-16.06-3.65-33.23Z"/><path class="cls-1" d="M349.78,276.84a35.65,35.65,0,0,0-31,15.9,31.56,31.56,0,0,0-10.91-8.47,32,32,0,0,0-17.08-2.73l27.17-24.71Z"/><path class="cls-2" d="M321,218a43.74,43.74,0,0,0-.8,19c2.88,15.51,14.11,25.88,19.26,30.64,7.75,7.16,15.17,11,14.45,12.43s-7.55-1-8.32-1.26c-11.78-3.91-15.91-10.8-20.28-9-2.86,1.18-4,5.32-4.29,6.4-.44,1.61-.31,3.42,0,7,.44,5.84,1.06,7.1.29,9.64-.13.4-1.37,4.35-3.3,4.38-1.52,0-2.77-2.39-3.27-3.79-.9-2.55-.06-3.88.31-9.48.19-3,.28-4.55-.15-6.41s-1.26-5.43-3.37-6.22c-3.44-1.29-7,5.78-17.83,11.48-1.23.65-6.8,3.59-7.59,2.54s5.08-6.05,10.83-13.73c1-1.34,7.47-10.09,10.65-19.73,1.62-4.9,4.62-16.76-.54-33.42Z"/><ellipse class="cls-2" cx="263.21" cy="72.3" rx="5.75" ry="7.84"/><path class="cls-8" d="M199.06,53.56a32.31,32.31,0,0,0,1.83,18c3.34,7.78,11.22,16.14,46.23,25.08,0,0,52.75,13.46,96.13,5.48,11.37-2.09,21.35-5.59,29.78-13.32a47.54,47.54,0,0,0,7.05-8.1,524.43,524.43,0,0,0-104.49-36q-13.87-3.19-27.16-5.49a51.25,51.25,0,0,1-49.37,14.37Z"/><path class="cls-3" d="M314.63,121.06a46,46,0,1,0-60.3,0,61.91,61.91,0,1,0,60.3,0Z"/><path class="cls-2" d="M285,86.73c-2.61,0-4.48,1.88-5.75,3.14-2.24,2.21-1.52,3-3.22,4.6-2.73,2.58-5.21,1.14-10.23,3.76-2.45,1.28-4.21,2.2-4.58,3.84-.79,3.54,5.54,7.68,9.67,10.39,6.64,4.35,9.95,6.52,14.89,6.54,7.13,0,12-4.37,16.72-8.63,2.44-2.2,7.1-6.41,6-9.53-.47-1.33-1.88-2-4.7-3.27-5.39-2.45-7.43-1.45-9.93-3.78-1.65-1.55-1-2.25-3.13-4.18C289.51,88.47,287.59,86.7,285,86.73Z"/><path class="cls-6" d="M244.77,32.66A165.78,165.78,0,0,0,295.45,35a164.55,164.55,0,0,0,31.34-6.53l9.15,17.76-71.06-3.13Z"/><path class="cls-5" d="M199.06,53.56a46,46,0,0,0,19.59,2.87c16.83-1.35,19.14-11.76,33.17-13.35s14.88,8.36,43.11,14.66c13.58,3,16.14,1.34,23.77,5.48,8.74,4.75,10.59,9.79,23,16.72,5.46,3,9.22,5.15,14.63,6,10.59,1.67,19.48-2.69,23.77-5.23A100.18,100.18,0,0,1,358.66,69a100.24,100.24,0,0,1-22.72-22.73c-6.41-.42-15.48-1-26.39-1.82-12.72-.93-19.07-1.46-24.29-2.09a188.65,188.65,0,0,1-40.49-9.67c-2.39,2.22-6,5.44-10.45,9.14-8,6.56-12,9.88-16.72,11.5C214.33,54.43,208.05,55.89,199.06,53.56Z"/><path class="cls-4" d="M239,133.1a39.74,39.74,0,0,1,17.67,14.5c8.2,12.52,9.44,31.24-.86,44.52-8.65,11.14-21.48,13.37-25.05,13.87-1.09-1-18.89-17.65-14.49-41.68C220,144,236.73,134.37,239,133.1Z"/><path class="cls-4" d="M329.64,133.1A39.67,39.67,0,0,0,312,147.6c-8.21,12.52-9.45,31.24.86,44.52,8.64,11.14,21.47,13.37,25.05,13.87,1.09-1,18.89-17.65,14.49-41.68C348.65,144,332,134.37,329.64,133.1Z"/><ellipse class="cls-6" cx="269.29" cy="74.96" rx="5.4" ry="7.71"/><ellipse class="cls-6" cx="302.28" cy="74.96" rx="5.4" ry="7.71"/><ellipse class="cls-7" cx="267.35" cy="72.61" rx="1.61" ry="2.36"/><ellipse class="cls-7" cx="300.08" cy="72.61" rx="1.61" ry="2.36"/><path class="cls-1" d="M461.26,273.46c0,.71,4.95.33,7.42,3.63,2,2.63,1.47,6.39.67,9.27a10.23,10.23,0,0,1,11-.84c4.83,2.63,5.22,8.11,5.23,8.43,9.19-3.63,15.42-10.75,15.69-18.38a16,16,0,0,0-1.69-7.59C468.72,271,461.21,272.58,461.26,273.46Z"/><path class="cls-2" d="M496.93,259.8a23.31,23.31,0,0,1-10.88,7.34c-6.14,1.82-9.19-.39-16.7,1.26s-12.92,5.92-12.64,6.58,8.48-2,16.27-2.78a43.68,43.68,0,0,1,7.5.19c2.26.17,2.62.29,2.74.57.43,1-2.38,3.17-11.34,9.35-7.76,5.36-9.87,6.65-9.64,7.16.38.83,6.94-.15,13.18-3.62,8.06-4.47,11-10.57,17.46-10.35,1.12,0,2.05.08,2.53.74,2.67,3.72-15.14,18.84-13.41,21,.78,1,6.52-1.95,11.13-5.82,9.48-8,12.45-18.53,13.41-23.27a43.57,43.57,0,0,0,.5-13.91Z"/><path class="cls-1" d="M538.29,274.91a11.62,11.62,0,0,1,8.14,1.65,11.94,11.94,0,0,1,5.14,8.35,23.55,23.55,0,0,0,9-12.68c1.4-5.35,1-12.5-1.63-13.38-2-.67-4,2.7-10.48,8.34A93.71,93.71,0,0,1,538.29,274.91Z"/><path class="cls-1" d="M555.48,285.26c1.42-1.4,7.21-6.79,15.51-6.53a19.35,19.35,0,0,1,6.84,1.49c1.06-3.75,3-12.66-1.32-21.42-2.58-5.24-7.65-11-10.33-10-1.71.63-2.09,5.41-2.8,14.93-.52,7.08-.31,9.11-1.55,12.43A23.11,23.11,0,0,1,555.48,285.26Z"/><path class="cls-2" d="M532,234.57a33.78,33.78,0,0,1,12.45,5.18c4.25,2.9,9.81,6.7,10.26,12.13.75,9.16-13.38,19.09-19.21,20.25-.51.1-2.37.42-2.46,1.15-.12,1,2.7,2.28,4.42,2.62,8.08,1.63,16.18-13.66,18.79-12.21,1.82,1,.28,9.79-2.66,16.57-1.2,2.77-2.66,5.08-1.89,5.85s3.88-.41,6-2.31c5.17-4.6,5.58-13.73,5.61-14.77.08-2.43-.17-5.21,1.73-7.46a4.22,4.22,0,0,1,2.46-1.71c3.32-.47,7.35,5.76,9.13,11.25,1.92,6,.84,10.09,2.14,10.39s4-3.47,4.64-7.68c.52-3.49-.67-5.3-3.65-13.29-3.36-9-2.87-9.51-5.08-13.51s-4.74-8.42-9.07-9.44c-1.59-.37-1.84.07-4.59-.09a26.72,26.72,0,0,1-10.16-2.72c-7.08-3.59-10.09-11-10.88-13.15Z"/><path class="cls-3" d="M546.42,118.4c-2.14-2.93-11.76-15.63-18.21-13.49-5.91,2-2.26,14-11.13,25-4.39,5.39-8.32,6.17-26,14.5-10.5,4.95-18.92,9.31-24.49,12.27a54,54,0,0,0-5.79,2.64,44.26,44.26,0,1,0-22.95,75.09,55.27,55.27,0,0,0,86.19,14.39c9.72-8.77,29.88-29.88,35.5-62.57C560.62,180.07,566.06,145.33,546.42,118.4Z"/><path class="cls-2" d="M397.21,206.06c-1.5,1-.43,3.65-1,9A27.56,27.56,0,0,1,394,224c-3.65,7.48-11.76,7.88-11.73,11.4,0,2.94,5.67,5.45,9.5,6.45,11,2.88,26.35-1.58,32.67-13.18,5-9.23,3.59-21.65-.14-23.08-1.56-.59-2.44,1.17-7.38,2.42a25.5,25.5,0,0,1-11,.48C400.69,207.48,398.81,205,397.21,206.06Z"/><path class="cls-3" d="M447.6,245.13c-4.46-3.64-10-3.12-12.24-.25-1.74,2.21-1.79,6.12,0,7.59,2.08,1.7,7.05.46,11.48-4.3-.19.12-4.54,3.15-4,7.58.33,2.93,2.69,5.87,4.3,5.57,2.17-.4,2.51-6.51,2.53-7.08A18.27,18.27,0,0,0,447.6,245.13Z"/><path class="cls-3" d="M393.76,167.89c-1.74-3.89-5.06-6.32-8.45-6.23-3.14.08-6.52,2.33-6.32,4s3.8,3,8.85,3.29c-4.45.95-7.65,4.15-8.09,7.84-.3,2.44.51,5.87,2.27,6.33S387.25,180.88,393.76,167.89Z"/><path class="cls-4" d="M474.55,208.09c-.94,2.38-5.09,12.83-.53,20.2,6,9.73,24.62,9.86,36.92,6,31.65-9.83,40.09-51.51,40.57-67.51.09-3,.42-13.92-4.1-15.62-3.31-1.25-8.5,2.65-9.67,3.53a20.38,20.38,0,0,0-4.69,5c2.41-4.43,2.33-9.11.05-11.27-3.19-3-9.7-.17-12.93,2.61-6.71,5.77-5,16-4.8,16.88-1.35-6.81-4.78-11.55-8-11.54-3.69,0-6.41,6.29-7.69,9.24-2.57,5.93-2.19,9.74-2.91,13.59C494.24,192.9,480.57,192.9,474.55,208.09Z"/><ellipse class="cls-6" cx="405.71" cy="192.81" rx="5.56" ry="7.59" transform="matrix(0.84, -0.54, 0.54, 0.84, -39.94, 249.11)"/><ellipse class="cls-7" cx="402.31" cy="192.48" rx="1.55" ry="2.12" transform="translate(-40.3 247.23) rotate(-32.62)"/></g></g></svg>