<svg xmlns="http://www.w3.org/2000/svg" viewBox="0 0 449.75 204.22"><defs><style>.cls-1{fill:#587096;}.cls-2{fill:#e7de56;}.cls-3{fill:#cdc54e;}.cls-4{fill:#f4ea5a;}.cls-5{fill:#e08f08;}.cls-6,.cls-7{fill:none;stroke:#1d1d1b;stroke-miterlimit:10;}.cls-6{stroke-width:3px;}.cls-7{stroke-width:2.44px;}</style></defs><g id="Слой_2" data-name="Слой 2"><g id="Слой_3" data-name="Слой 3"><path class="cls-1" d="M93.75,77.92a170.63,170.63,0,0,1,34.17-4.22c23.36-.51,39.05,4,57.48,7.7,0,0,27.8,5.56,69.34,7.71,26,1.34,66.3-2.55,119-31.6,9.94-2.33,16.45-11.47,15.48-20.7-.82-7.73-6.75-14.38-14.84-16.43-33.88,8.77-57.63,16.25-75.24,22.5C288.65,46.63,271.05,53.23,247,53c-4.58-.05-8.24-.39-14.58-1C216.11,50.4,201.9,47.4,164.07,41.7c-47.5-7.16-58.89-7.54-71.06-.81-14.45,8-22.1,21.63-26.13,31Z"/><path class="cls-2" d="M194.1,125.17a61,61,0,0,0-16.32-41.62,47.62,47.62,0,0,0-40.53-72.64c-1.39,0-2.76.07-4.12.19C132,4.81,128.5.47,124.62,0c-2.48-.28-6.38.91-6.85,3.61a4.9,4.9,0,0,0,2,4.34c-3.5-1.69-7.08-1.71-9.53,0-1.94,1.34-3.65,4.11-2.89,5.77.64,1.38,3.14,2.3,9.94,1.57a47.6,47.6,0,0,0-23.49,62.6A56.89,56.89,0,0,1,69.34,88.81a55.81,55.81,0,0,1-27.16-1.76C23.4,80.68,18.76,66.56,11.27,68.36,3.45,70.25.17,87.62,0,100.07c-.38,29.2,15.8,66.67,50.37,86.52,48.46,27.82,98.87,1.4,102.52-.6a101.46,101.46,0,0,0,22.7-17c.45-.44.89-.89,1.32-1.34l.77-.79h0A61.05,61.05,0,0,0,194.1,125.17Z"/><path class="cls-3" d="M432.22,13.22c-1.6.08-.13,6.78-5.63,16.89C415.36,50.71,391.17,56,389,56.48a57.39,57.39,0,0,1-15.18,1l-.22,0a47.87,47.87,0,0,0-5.75-26.8c5,4.61,7.6,5.35,8.93,4.62,1.6-.89,1.86-4.13,1.1-6.36-1-2.82-3.86-4.93-7.69-5.63A4.91,4.91,0,0,0,374.29,21c1.22-2.45-1.22-5.72-3.38-7-3.39-2-8.76-.51-13.4,3.88-1-.9-2.1-1.77-3.22-2.6A47.63,47.63,0,0,0,297.89,92a47.07,47.07,0,0,0,7.5,4.51,61.33,61.33,0,0,0,57.49,82.58l2.67-.07.57,0c18-.68,43.22-5.06,61.06-23.28C471.44,110.52,438,12.94,432.22,13.22Z"/><path class="cls-4" d="M129.29,114.08c2.66.63,14.37,3.4,18,11.91,4.85,11.24-6.43,27.63-17.32,36.08-28,21.74-69.74,3.61-84.07-5.77-2.71-1.78-12.46-8.16-11.18-13.17.93-3.66,7.53-5.83,9-6.32A21.85,21.85,0,0,1,51,135.73c-5.36-.59-9.41-3.54-9.92-6.86-.71-4.66,5.8-8.61,10.22-9.74,9.17-2.35,17.06,5.44,17.75,6.14-5.16-5.36-7.21-11.27-5.24-14.08,2.27-3.22,9.44-1.76,12.81-1.08,6.78,1.38,9.89,4,13.71,5.78C103.91,122.05,112.28,110.06,129.29,114.08Z"/><path class="cls-4" d="M362.53,108.55c-1.18,1.91-6.36,10.31-2.86,18.61,4.62,11,22.37,17,34.57,17.41,31.37,1,44.29-35.09,46.61-49.82.44-2.79,2-12.8-2.11-15.84-3-2.21-8.42-.24-9.64.2A14.68,14.68,0,0,0,424,82.22c2.82-3.35,3.29-7.73,1.37-10.47-2.7-3.84-9.25-3.25-12.67-1.7-7.08,3.23-6.6,13.28-6.54,14.17-.5-6.77-3.22-12.27-6.29-13.28-3.52-1.17-6.85,3.8-8.41,6.13-3.15,4.69-3.23,8.35-4.37,11.71C383.1,100.72,370,96.35,362.53,108.55Z"/><path class="cls-5" d="M153.49,70.44c-3.48.58-3,5.84-7.71,11.26-6.7,7.66-16,6.63-16.29,10.07-.18,2.51,4.68,4.38,12.15,8,20.77,10.07,24.33,15.57,28.14,13.34,4.78-2.8-.87-11.38,4.74-28.45,1.29-3.89,3.18-8.31,1.49-9.78-1.89-1.63-5.63,2.66-11.26,1.78C158.67,75.71,157.21,69.82,153.49,70.44Z"/><path class="cls-2" d="M389.26,92.66c-2.79-1.18-6.16,5.3-12.75,9.78-11.67,7.94-33.85,9.8-79.8-15.51a59.73,59.73,0,0,0-6.2-3.49l0,0h0a60.89,60.89,0,0,0-11.92-4.3,47.63,47.63,0,0,0-70.29-60.69c-1.12.82-2.19,1.69-3.21,2.59-4.64-4.39-10-5.83-13.4-3.88-2.17,1.25-4.6,4.52-3.39,7a4.91,4.91,0,0,0,4.14,2.35c-3.82.71-6.72,2.81-7.68,5.63-.77,2.23-.51,5.47,1.09,6.36,1.33.74,3.89,0,8.93-4.62A47.65,47.65,0,0,0,216.2,99.92a61.28,61.28,0,0,0,16.09,91.28h0l.08,0a61.06,61.06,0,0,0,15,6.41,115.16,115.16,0,0,0,48.27,6.12c8.26-.74,46.86-4.19,72.88-35.85C393.26,137.82,395.79,95.43,389.26,92.66Z"/><path class="cls-4" d="M246.53,118.5c-2.67.63-14.37,3.39-18,11.9-4.85,11.24,6.43,27.64,17.32,36.08,28,21.74,69.74,3.61,84.07-5.77,2.71-1.78,12.46-8.16,11.18-13.17-.93-3.66-7.54-5.83-9-6.31a22.2,22.2,0,0,0-7.22-1.09c5.37-.59,9.42-3.53,9.93-6.85.71-4.66-5.8-8.61-10.22-9.74-9.17-2.35-17.06,5.43-17.75,6.13,5.15-5.36,7.21-11.27,5.23-14.07-2.26-3.23-9.44-1.77-12.8-1.08-6.78,1.37-9.89,4-13.71,5.77C271.91,126.46,263.54,114.47,246.53,118.5Z"/><path class="cls-5" d="M198.61,72.89c-1.82.71-1.32,3.71-3.16,9.19A30,30,0,0,1,191,90.89c-5.58,6.94-14.14,5.43-14.94,9.12-.67,3.06,4.63,7,8.39,9,10.76,5.59,27.86,4.59,37.2-6,7.43-8.44,8.88-21.73,5.32-24.1-1.48-1-2.82.64-8.27.76a27,27,0,0,1-11.59-2.1C201.9,75.2,200.53,72.14,198.61,72.89Z"/><path class="cls-6" d="M117.55,68.66c0-.65.23-4.93,3.56-7.41,3.5-2.61,9.06-2.18,13,1.49"/><path class="cls-6" d="M153.08,56.9c0-.65.23-4.93,3.56-7.41,3.5-2.61,9.06-2.18,13,1.48"/><path class="cls-6" d="M208.85,65.15c-.06-.65-.41-4.92,2.58-7.8,3.14-3,8.71-3.33,13.12-.2"/><path class="cls-6" d="M322.39,50.08c.38-.53,2.93-4,7.08-4.17,4.37-.21,8.74,3.24,10,8.49"/><path class="cls-7" d="M360.57,52.55c-.07-.65-.48-4.91,1.38-7.65s5.64-2.92,8.71.38"/><path class="cls-1" d="M82.88,64.22,93,40.89A61.42,61.42,0,0,0,63.33,60.07C60,64,46.53,80.09,49.7,101c2.82,18.56,17.77,34.21,37.93,40.29A30.68,30.68,0,0,1,90,126.44c5.22-12,16.63-16.36,19-17.19-9.12-1.18-16.43-7.38-18.37-15.4s2.32-14.68,3.16-15.93Q88.32,71.07,82.88,64.22Z"/><path class="cls-1" d="M384.55,43.71l-9-23A61.27,61.27,0,0,1,404.1,39.56c3.31,3.94,16.8,20,13.63,40.89C414.92,99,400,114.66,379.81,120.74a30.79,30.79,0,0,0-2.37-14.81c-5.23-12-16.64-16.36-19-17.19,9.13-1.18,16.44-7.38,18.37-15.4s-2.31-14.69-3.15-15.94Z"/><path class="cls-5" d="M354.09,62.73c2,.1,2.42,3.1,5.89,7.73a29.89,29.89,0,0,0,6.95,7c7.48,4.83,15.13.72,17.05,4,1.6,2.7-2.19,8.13-5.14,11.16-8.46,8.7-25,13.11-37.21,6-9.7-5.67-15.25-17.84-12.62-21.21,1.1-1.41,2.88-.28,8.09-1.87a27.1,27.1,0,0,0,10.35-5.64C351.7,66,352,62.62,354.09,62.73Z"/></g></g></svg>